<svg xmlns="http://www.w3.org/2000/svg" width="31.783" height="28" viewBox="0 0 31.783 28">
  <path id="mosque" d="M31.128,37.612a.445.445,0,0,0-.221-.384,2.424,2.424,0,0,0,.875-1.888c0-2.413-2.942-2.888-2.942-4,0,1.11-2.942,1.585-2.942,4a2.424,2.424,0,0,0,.875,1.888.444.444,0,0,0,.2.827V40.44a.444.444,0,0,0,0,.888v1.245H21.459V40.756h-.633v-1.25h-.052a5.431,5.431,0,0,0,1.8-4.112c0-4.976-5.506-6.326-6.522-8.418a2.274,2.274,0,0,0,2.324-.778,2.307,2.307,0,0,0,.359-.621l.013-.035-.031.02a2.26,2.26,0,0,1-3.339-2.7l.013-.035-.031.02a2.279,2.279,0,0,0,.412,4.04c-.9,2.145-6.563,3.461-6.563,8.508a5.431,5.431,0,0,0,1.8,4.112h-.052v1.25h-.633v1.816H4.806v-1.25a.444.444,0,0,0,0-.887V38.05a.443.443,0,0,0,.2-.827,2.424,2.424,0,0,0,.875-1.888c0-2.413-2.942-2.889-2.942-4,0,1.11-2.941,1.586-2.941,4a2.423,2.423,0,0,0,.875,1.888.444.444,0,0,0,.2.827v2.384a.444.444,0,0,0,0,.887v1.25h0v8.253H4.737V47.643c0-1.321,1.892-2.186,1.892-2.186s1.892.865,1.892,2.186v3.182h4.715V46.283c0-1.852,2.654-3.065,2.654-3.065s2.653,1.213,2.653,3.065v4.542h4.715V47.643c0-1.321,1.892-2.186,1.892-2.186s1.892.865,1.892,2.186v3.182h3.664V42.572h0V41.327a.444.444,0,0,0,0-.888V38.055A.445.445,0,0,0,31.128,37.612Z" transform="translate(0.001 -22.825)" fill="#70df34"/>
</svg>
